<?xml version="1.0" encoding="utf-8"?>
<!-- Generator: Adobe Illustrator 16.0.0, SVG Export Plug-In . SVG Version: 6.00 Build 0)  -->
<!DOCTYPE svg PUBLIC "-//W3C//DTD SVG 1.1//EN" "http://www.w3.org/Graphics/SVG/1.1/DTD/svg11.dtd">
<svg version="1.1" id="图层_1" xmlns="http://www.w3.org/2000/svg" xmlns:xlink="http://www.w3.org/1999/xlink" x="0px" y="0px"
	 width="100px" height="100px" viewBox="0 0 100 100" enable-background="new 0 0 100 100" xml:space="preserve">
<g id="XMLID_334_">
	<g id="XMLID_342_">
		<path id="XMLID_356_" fill="#040000" d="M61.264,33.013v2.354c0,0.311-0.035,0.604-0.103,0.883s-0.181,0.52-0.339,0.73
			c-0.159,0.208-0.372,0.374-0.638,0.495c-0.27,0.124-0.602,0.186-1.002,0.186c-0.482,0-0.894-0.111-1.233-0.335
			c-0.339-0.225-0.552-0.551-0.641-0.979l-2.895,1.546v-1.607l2.737-1.27v-0.663h-2.737v-1.34H61.264z M58.428,34.353v0.792
			c0,0.121,0.005,0.247,0.016,0.382s0.039,0.257,0.089,0.365c0.048,0.109,0.122,0.198,0.227,0.271
			c0.102,0.071,0.248,0.108,0.435,0.108c0.174,0,0.313-0.033,0.413-0.096c0.104-0.063,0.185-0.144,0.239-0.239
			c0.055-0.1,0.092-0.211,0.111-0.335c0.02-0.126,0.027-0.25,0.027-0.369v-0.879H58.428z"/>
		<path id="XMLID_353_" fill="#040000" d="M61.264,45.585v2.01c0,0.487-0.063,0.948-0.186,1.387
			c-0.121,0.438-0.319,0.818-0.593,1.145c-0.274,0.326-0.631,0.587-1.07,0.778s-0.97,0.287-1.596,0.287
			c-0.557,0-1.044-0.092-1.466-0.278c-0.422-0.188-0.776-0.438-1.063-0.753c-0.284-0.313-0.506-0.679-0.654-1.089
			c-0.147-0.411-0.222-0.846-0.222-1.299v-2.188H61.264z M55.806,46.925v0.696c0,0.309,0.037,0.596,0.108,0.86
			c0.07,0.266,0.188,0.498,0.353,0.691c0.165,0.196,0.383,0.349,0.648,0.461c0.27,0.113,0.596,0.166,0.982,0.166
			c0.335,0,0.626-0.053,0.874-0.166c0.248-0.112,0.452-0.263,0.615-0.452c0.161-0.187,0.28-0.411,0.363-0.665
			c0.078-0.255,0.122-0.521,0.122-0.803v-0.789H55.806z"/>
		<path id="XMLID_351_" fill="#040000" d="M61.264,54.385v4.13h-1.392v-2.788h-1.279v2.636h-1.394v-2.636h-1.394v2.944h-1.392
			v-4.286H61.264z"/>
		<path id="XMLID_349_" fill="#040000" d="M59.589,64.98c0.154-0.108,0.27-0.256,0.344-0.441c0.074-0.187,0.111-0.362,0.111-0.528
			c0-0.098-0.016-0.197-0.037-0.3c-0.026-0.104-0.067-0.202-0.122-0.293c-0.057-0.092-0.128-0.166-0.218-0.225
			c-0.091-0.057-0.199-0.085-0.33-0.085c-0.204,0-0.363,0.067-0.474,0.207c-0.109,0.137-0.2,0.309-0.278,0.518
			c-0.079,0.211-0.157,0.435-0.233,0.676s-0.188,0.466-0.328,0.675c-0.144,0.206-0.335,0.38-0.571,0.52
			c-0.237,0.135-0.56,0.204-0.957,0.204c-0.381,0-0.713-0.061-0.998-0.187c-0.283-0.127-0.518-0.299-0.705-0.512
			c-0.187-0.215-0.326-0.465-0.417-0.745c-0.087-0.285-0.135-0.585-0.135-0.898c0-0.397,0.069-0.764,0.204-1.101
			s0.354-0.652,0.657-0.945l1.178,0.954c-0.204,0.138-0.365,0.312-0.478,0.52c-0.111,0.209-0.17,0.425-0.17,0.648
			c0,0.108,0.018,0.218,0.043,0.33c0.031,0.111,0.074,0.214,0.131,0.301c0.061,0.089,0.135,0.16,0.227,0.215
			c0.089,0.055,0.195,0.08,0.317,0.08c0.206,0,0.369-0.069,0.486-0.208c0.122-0.142,0.223-0.317,0.305-0.528
			c0.085-0.211,0.17-0.441,0.255-0.688c0.08-0.248,0.193-0.474,0.337-0.688c0.144-0.211,0.33-0.389,0.561-0.528
			c0.235-0.139,0.539-0.208,0.918-0.208c0.369,0,0.691,0.064,0.968,0.191c0.278,0.13,0.511,0.3,0.697,0.517
			c0.188,0.214,0.326,0.462,0.422,0.74c0.092,0.282,0.14,0.569,0.14,0.869c0,0.344-0.057,0.674-0.165,0.996
			c-0.111,0.319-0.296,0.608-0.553,0.865L59.589,64.98z"/>
		<path id="XMLID_347_" fill="#040000" d="M61.264,69.121v1.337h-6.85v-1.337H61.264z"/>
		<path id="XMLID_345_" fill="#040000" d="M54.896,79.414c-0.23-0.396-0.397-0.809-0.5-1.236c-0.104-0.429-0.156-0.868-0.156-1.316
			c0-0.474,0.085-0.91,0.252-1.311c0.168-0.402,0.409-0.746,0.722-1.039c0.31-0.294,0.691-0.521,1.136-0.684
			c0.443-0.163,0.941-0.245,1.489-0.245s1.046,0.082,1.489,0.245s0.822,0.39,1.135,0.684c0.313,0.293,0.555,0.637,0.723,1.039
			c0.167,0.4,0.252,0.837,0.252,1.311c0,0.487-0.067,0.938-0.2,1.347c-0.131,0.408-0.361,0.768-0.681,1.076l-1.163-0.944
			c0.213-0.183,0.376-0.387,0.487-0.617c0.108-0.23,0.163-0.518,0.163-0.861c0-0.284-0.055-0.543-0.163-0.773
			c-0.111-0.232-0.266-0.431-0.461-0.599c-0.196-0.165-0.431-0.293-0.7-0.382c-0.272-0.09-0.565-0.133-0.881-0.133
			c-0.322,0-0.615,0.043-0.885,0.133c-0.268,0.089-0.5,0.217-0.696,0.382c-0.195,0.168-0.35,0.366-0.461,0.599
			c-0.108,0.23-0.165,0.489-0.165,0.773c0,0.296,0.039,0.549,0.113,0.76c0.073,0.21,0.149,0.38,0.226,0.504h1.113v-1.089h1.394
			v2.378H54.896z"/>
		<path id="XMLID_343_" fill="#040000" d="M61.264,82.824v1.817l-4.76,2.585v0.018h4.76v1.338h-6.85v-1.749l4.875-2.654v-0.016
			h-4.875v-1.339H61.264z"/>
	</g>
	<rect id="XMLID_339_" x="56.971" y="40.841" fill="#040000" width="1.496" height="1.496"/>
	<path id="XMLID_338_" fill="#040000" d="M53.884,97.049v-7.354h6.921l0.067-0.005c7.571-0.217,14.664-3.335,19.97-8.784
		c5.313-5.462,8.24-12.655,8.24-20.257s-2.927-14.794-8.24-20.257c-5.306-5.448-12.398-8.568-19.97-8.786h-0.204l-0.266,0.002
		h-6.519v-7.313h6.519l0.439,0.01c9.539,0.209,18.474,4.081,25.157,10.907c6.697,6.834,10.383,15.868,10.383,25.438
		c0,9.567-3.686,18.604-10.383,25.437c-6.66,6.803-15.56,10.674-25.063,10.906v0.057H53.884z"/>
	<path id="XMLID_335_" fill="#040000" d="M41.746,97.049V78.988L23.544,97.049h-9.508l20.098-20.224l-1.026-0.259
		c-7.718-1.932-14.703-6.454-19.667-12.733c-5.117-6.469-7.822-14.26-7.822-22.526c0-9.57,3.688-18.604,10.383-25.438
		C22.685,9.044,31.619,5.17,41.159,4.96l0.426-0.009h7.441v92.097H41.746z M41.129,12.264c-7.572,0.216-14.663,3.336-19.969,8.787
		c-5.315,5.46-8.243,12.654-8.243,20.256s2.928,14.794,8.243,20.256c5.327,5.471,12.418,8.603,19.969,8.819h0.617V12.247
		L41.129,12.264z"/>
</g>
</svg>
